<?xml version="1.0" encoding="utf-8"?>
<!-- Generator: Adobe Illustrator 25.2.3, SVG Export Plug-In . SVG Version: 6.00 Build 0)  -->
<svg version="1.1" id="Layer_1" xmlns="http://www.w3.org/2000/svg" xmlns:xlink="http://www.w3.org/1999/xlink" x="0px" y="0px"
	 viewBox="0 0 240 43" style="enable-background:new 0 0 240 43;" xml:space="preserve">
<style type="text/css">
	.st0{fill:#FFFFFF;}
</style>
<path class="st0" d="M24.35,8.12h-8.07v22.33H8.07V8.12H0V0.75h24.35V8.12z"/>
<path class="st0" d="M42.05,31.2c-9.55,0-16.36-6.52-16.36-15.6S32.5,0,42.05,0c9.52,0,16.31,6.5,16.31,15.6
	C58.36,24.7,51.57,31.2,42.05,31.2L42.05,31.2z M42.05,23.58c4.52,0,7.79-3.34,7.79-7.99c0-4.65-3.27-7.99-7.79-7.99
	c-4.52,0-7.84,3.36-7.84,7.99C34.21,20.22,37.53,23.58,42.05,23.58L42.05,23.58z"/>
<path class="st0" d="M77.35,31.2c-9.55,0-16.36-6.52-16.36-15.6S67.8,0,77.35,0c9.52,0,16.31,6.5,16.31,15.6
	C93.66,24.7,86.87,31.2,77.35,31.2L77.35,31.2z M77.35,23.58c4.52,0,7.79-3.34,7.79-7.99c0-4.65-3.27-7.99-7.79-7.99
	s-7.84,3.36-7.84,7.99C69.51,20.22,72.83,23.58,77.35,23.58L77.35,23.58z"/>
<path class="st0" d="M125.19,15.57c0,8.67-6.36,14.87-15.33,14.87H97.84V0.75h12.02C118.85,0.75,125.19,6.9,125.19,15.57z
	 M116.81,15.57c0-4.41-2.93-7.33-7.33-7.33h-3.42v14.71h3.42C113.88,22.95,116.81,19.96,116.81,15.57z"/>
<path class="st0" d="M144.26,31.2c-9.55,0-16.36-6.52-16.36-15.6S134.71,0,144.26,0c9.52,0,16.31,6.5,16.31,15.6
	C160.57,24.7,153.78,31.2,144.26,31.2L144.26,31.2z M144.26,23.58c4.52,0,7.79-3.34,7.79-7.99c0-4.65-3.27-7.99-7.79-7.99
	c-4.52,0-7.84,3.36-7.84,7.99C136.42,20.22,139.74,23.58,144.26,23.58L144.26,23.58z"/>
<path class="st0" d="M179.56,31.2c-9.55,0-16.36-6.52-16.36-15.6S170.01,0,179.56,0c9.52,0,16.31,6.5,16.31,15.6
	C195.87,24.7,189.08,31.2,179.56,31.2L179.56,31.2z M179.56,23.58c4.52,0,7.79-3.34,7.79-7.99c0-4.65-3.27-7.99-7.79-7.99
	c-4.52,0-7.84,3.36-7.84,7.99C171.72,20.22,175.04,23.58,179.56,23.58L179.56,23.58z"/>
<path class="st0" d="M216.75,30.45l-8.52-13.12v13.12h-8.18V0.75h8.18v12.52l7.85-12.52h9.49l-9.51,14.38l10.4,15.31H216.75z"/>
<g>
	<path class="st0" d="M232.34,23.12H240v7.33h-7.66V23.12z"/>
</g>
</svg>
