<?xml version="1.0" encoding="utf-8"?>
<!-- Generator: Adobe Illustrator 25.2.3, SVG Export Plug-In . SVG Version: 6.00 Build 0)  -->
<svg version="1.1" id="Layer_1" xmlns="http://www.w3.org/2000/svg" xmlns:xlink="http://www.w3.org/1999/xlink" x="0px" y="0px"
	 viewBox="0 0 246 42.89" style="enable-background:new 0 0 246 42.89;" xml:space="preserve">
<style type="text/css">
	.st0{fill:#FFFFFF;}
</style>
<g>
	<path class="st0" d="M27.52,11.41L20.6,15.4l11.05,19.14l-7.04,4.07L13.56,19.47l-6.92,3.99L3,17.15L23.87,5.1L27.52,11.41z"/>
	<path class="st0" d="M35,19.72c0-8.98,6.74-15.44,16.19-15.44c9.42,0,16.14,6.43,16.14,15.44s-6.72,15.44-16.14,15.44
		C41.74,35.16,35,28.7,35,19.72z M58.9,19.72c0-4.6-3.24-7.9-7.71-7.9s-7.76,3.33-7.76,7.9c0,4.57,3.29,7.9,7.76,7.9
		S58.9,24.32,58.9,19.72z"/>
	<path class="st0" d="M69.95,19.72c0-8.98,6.74-15.44,16.19-15.44c9.43,0,16.15,6.43,16.15,15.44s-6.72,15.44-16.15,15.44
		C76.7,35.16,69.95,28.7,69.95,19.72z M93.86,19.72c0-4.6-3.24-7.9-7.71-7.9c-4.47,0-7.76,3.33-7.76,7.9c0,4.57,3.29,7.9,7.76,7.9
		C90.62,27.62,93.86,24.32,93.86,19.72z"/>
	<path class="st0" d="M133.51,19.69c0,8.58-6.3,14.72-15.17,14.72h-11.9V5.02h11.9C127.24,5.02,133.51,11.1,133.51,19.69z
		 M125.21,19.69c0-4.36-2.9-7.26-7.25-7.26h-3.38V27h3.38C122.31,27,125.21,24.03,125.21,19.69z"/>
	<path class="st0" d="M136.21,19.72c0-8.98,6.75-15.44,16.19-15.44c9.43,0,16.15,6.43,16.15,15.44s-6.72,15.44-16.15,15.44
		C142.95,35.16,136.21,28.7,136.21,19.72z M160.11,19.72c0-4.6-3.24-7.9-7.71-7.9c-4.47,0-7.76,3.33-7.76,7.9
		c0,4.57,3.29,7.9,7.76,7.9C156.88,27.62,160.11,24.32,160.11,19.72z"/>
	<path class="st0" d="M171.16,19.72c0-8.98,6.75-15.44,16.19-15.44c9.43,0,16.15,6.43,16.15,15.44s-6.72,15.44-16.15,15.44
		C177.91,35.16,171.16,28.7,171.16,19.72z M195.07,19.72c0-4.6-3.24-7.9-7.71-7.9c-4.47,0-7.76,3.33-7.76,7.9
		c0,4.57,3.29,7.9,7.76,7.9C191.83,27.62,195.07,24.32,195.07,19.72z"/>
	<path class="st0" d="M224.18,34.41l-8.43-12.99v12.99h-8.1V5.02h8.1v12.39l7.77-12.39h9.39l-9.41,14.24l10.29,15.16H224.18z"/>
	<path class="st0" d="M235.42,27.16H243v7.26h-7.58V27.16z"/>
</g>
</svg>
